<?xml version="1.0" encoding="utf-8"?>
<!-- Generator: Adobe Illustrator 24.0.0, SVG Export Plug-In . SVG Version: 6.00 Build 0)  -->
<svg version="1.1" id="Layer_1" xmlns="http://www.w3.org/2000/svg" xmlns:xlink="http://www.w3.org/1999/xlink" x="0px" y="0px"
	 viewBox="0 0 735 852" style="enable-background:new 0 0 735 852;" xml:space="preserve">
<style type="text/css">
	.st0{fill:#00205B;}
	.st1{fill:#008852;}
	.st2{fill:#E6B35A;}
	.st3{fill:#E5B259;}
	.st4{fill:none;}
	.st5{fill:#FFFFFF;}
	.st6{font-family:'MicrosoftSansSerif';}
	.st7{font-size:90px;}
	.st8{letter-spacing:6;}
	.st9{fill:#97999B;stroke:#00205B;stroke-width:1.1616;stroke-miterlimit:10;}
	.st10{fill:#97999B;stroke:#00205B;stroke-width:0.5808;stroke-miterlimit:10;}
	.st11{fill:#404040;stroke:#97999B;stroke-width:11;stroke-miterlimit:10;}
	.st12{fill:#97999B;}
	.st13{font-size:72px;}
	.st14{letter-spacing:4;}
</style>
<path class="st0" d="M18.6,626.9V223.6l51.6-29.8L367.9,22l0,0l296.7,171.3l52.6,30.3v403.3L367.9,828.5L18.6,626.9z"/>
<path class="st1" d="M734.9,637.4V213.1l-29.3-16.9L427.8,35.8L367.5,1l-60.3,34.8L29.4,196.2L0.1,213.1v424.2l29.3,16.9
	l281.3,162.4l56.9,32.8l56.9-32.8l281.3-162.4L734.9,637.4z M29.4,621.5V231l50-28.9L367.5,35.8l0,0l287.2,165.8l50.9,29.4v390.5
	L367.5,816.7L29.4,621.5z"/>
<path class="st2" d="M367,633.9c0.3-0.3,0.6-0.6,0.9-0.9h-0.3C367.5,633.3,367.3,633.6,367,633.9z"/>
<path class="st3" d="M367,633.9c0.3-0.3,0.6-0.6,0.9-0.9h-0.3C367.5,633.3,367.3,633.6,367,633.9z"/>
<rect x="198" y="605" class="st4" width="343" height="92"/>
<text transform="matrix(1 0 0 1 198 669.4238)" class="st5 st6 st7 st8">TaxyvR</text>
<g>
	<g>
		<line class="st9" x1="128.7" y1="562" x2="596.8" y2="562"/>
		<g>
			<g>
				<line class="st9" x1="128.7" y1="562" x2="128.7" y2="555"/>
				<line class="st9" x1="222.3" y1="562" x2="222.3" y2="555"/>
				<line class="st9" x1="315.9" y1="562" x2="315.9" y2="555"/>
				<line class="st9" x1="409.5" y1="562" x2="409.5" y2="555"/>
				<line class="st9" x1="503.2" y1="562" x2="503.2" y2="555"/>
				<line class="st9" x1="596.8" y1="562" x2="596.8" y2="555"/>
			</g>
			<g>
			</g>
		</g>
	</g>
	<g>
		<g>
		</g>
		<line class="st9" x1="128.7" y1="562" x2="128.7" y2="282"/>
		<g>
			<g>
				<line class="st9" x1="128.7" y1="562" x2="140.4" y2="562"/>
				<line class="st9" x1="128.7" y1="506" x2="140.4" y2="506"/>
				<line class="st9" x1="128.7" y1="450" x2="140.4" y2="450"/>
				<line class="st9" x1="128.7" y1="394" x2="140.4" y2="394"/>
				<line class="st9" x1="128.7" y1="338" x2="140.4" y2="338"/>
				<line class="st9" x1="128.7" y1="282" x2="140.4" y2="282"/>
			</g>
			<g>
			</g>
		</g>
	</g>
	<g>
		<g>
			<g>
				<rect x="141.8" y="394" class="st10" width="67.4" height="168"/>
				<rect x="235.4" y="310" class="st10" width="67.4" height="252"/>
				<rect x="329" y="366" class="st10" width="67.4" height="196"/>
				<rect x="422.6" y="338" class="st10" width="67.4" height="224"/>
				<rect x="516.3" y="450" class="st10" width="67.4" height="112"/>
			</g>
		</g>
	</g>
	<g>
		<g>
		</g>
	</g>
</g>
<line class="st11" x1="77.6" y1="409.5" x2="368" y2="145.2"/>
<line class="st11" x1="638.8" y1="400" x2="361.2" y2="147.2"/>
<polygon class="st12" points="645.9,387.4 625.7,411.5 656.7,416.9 "/>
<text transform="matrix(1 0 0 1 342 274)" class="st5 st6 st13 st14">$</text>
</svg>
